<svg width="128" height="128" viewBox="0 0 128 128" fill="none" xmlns="http://www.w3.org/2000/svg">
<rect x="0.5" y="0.5" width="127" height="127" fill="white" fill-opacity="0.01"/>
<rect x="0.5" y="0.5" width="127" height="127" stroke="#3F3F3F"/>
<rect x="24" y="9" width="81" height="109" rx="1" stroke="#290808" stroke-width="2"/>
<path d="M72.6526 62.7586C78.244 50.0398 87 30.6879 87 30.6879L87 29H84.4681C84.4681 29 61.8964 39.3052 54.0853 53.475C48.7486 63.1563 52.3974 72.8862 52.3974 72.8862L47.3336 63.6026C47.3336 63.6026 46.3524 70.1569 47.7556 76.2621C48.5378 79.6653 51.5534 86.3897 51.5534 86.3897L52.3974 93.1414L48.1776 110.865L53.2414 94.8294L56.6172 86.3897C56.6172 86.3897 62.0359 83.1389 65.0569 80.4819C69.811 76.3007 71.8086 69.5104 71.8086 69.5104L61.681 76.2621C61.681 76.2621 69.1507 70.7243 72.6526 62.7586Z" fill="#461415" stroke="#222222"/>
<path d="M53.2413 86.3897C53.2413 86.3897 53.7675 72.4957 64.2129 55.163C71.2065 43.5581 85.3121 30.6879 85.3121 30.6879" stroke="#330505" stroke-opacity="0.6" stroke-linecap="round"/>
<line x1="31" y1="22" x2="95" y2="22" stroke="#290808" stroke-width="2"/>
</svg>
