<svg width="31" height="30" viewBox="0 0 31 30" fill="none" xmlns="http://www.w3.org/2000/svg">
<path fill-rule="evenodd" clip-rule="evenodd" d="M15.5128 0C6.93463 0 0 6.87497 0 15.3802C0 22.179 4.44326 27.9339 10.6072 29.9708C11.3779 30.1239 11.6602 29.6399 11.6602 29.2327C11.6602 28.8761 11.6348 27.6539 11.6348 26.3805C7.31948 27.2974 6.42086 24.5471 6.42086 24.5471C5.72737 22.7646 4.69983 22.3065 4.69983 22.3065C3.28743 21.3643 4.80271 21.3643 4.80271 21.3643C6.36942 21.4662 7.19152 22.943 7.19152 22.943C8.57819 25.2855 10.8127 24.6236 11.7116 24.2161C11.8399 23.223 12.2511 22.5355 12.6877 22.1537C9.24597 21.7971 5.6248 20.473 5.6248 14.5653C5.6248 12.8846 6.24082 11.5096 7.21692 10.4403C7.06292 10.0584 6.52343 8.47934 7.37124 6.36591C7.37124 6.36591 8.68107 5.95841 11.6345 7.94466C12.8989 7.60799 14.2029 7.43672 15.5128 7.43528C16.8227 7.43528 18.1579 7.61372 19.3909 7.94466C22.3446 5.95841 23.6544 6.36591 23.6544 6.36591C24.5022 8.47934 23.9624 10.0584 23.8084 10.4403C24.8102 11.5096 25.4008 12.8846 25.4008 14.5653C25.4008 20.473 21.7797 21.7715 18.3122 22.1537C18.8774 22.6374 19.3652 23.554 19.3652 25.0055C19.3652 27.068 19.3397 28.7233 19.3397 29.2324C19.3397 29.6399 19.6224 30.1239 20.3927 29.9711C26.5567 27.9336 30.9999 22.179 30.9999 15.3802C31.0253 6.87497 24.0653 0 15.5128 0Z" fill="#222"/>
</svg>
