<?xml version="1.0" encoding="UTF-8" standalone="no"?>
<svg
   width="60mm"
   height="60mm"
   viewBox="0 0 60 60"
   xmlns:xlink="http://www.w3.org/1999/xlink"
   xmlns="http://www.w3.org/2000/svg"
   xmlns:svg="http://www.w3.org/2000/svg">
  <defs
     id="defs16">
    <linearGradient
       x1="0"
       y1="0"
       x2="0"
       y2="0"
       id="linearGradient-1">
      <stop
         stop-color="#2E27AD"
         offset="0%"
         id="stop1043" />
      <stop
         stop-color="#527FFF"
         offset="100%"
         id="stop1045" />
    </linearGradient>
    <linearGradient
       xlink:href="#linearGradient-1"
       id="linearGradient1252"
       x1="0"
       y1="60"
       x2="60"
       y2="0"
       gradientUnits="userSpaceOnUse" />
    <linearGradient
       xlink:href="#linearGradient-1"
       id="linearGradient1393"
       gradientUnits="userSpaceOnUse"
       x1="0"
       y1="60"
       x2="60"
       y2="0" />
  </defs>
  <g
     id="Icon-Architecture/64/Arch_Amazon-DocumentDB_64"
     stroke="none"
     stroke-width="1"
     fill="none"
     fill-rule="evenodd"
     transform="matrix(0.8,0,0,0.77,0,0)">
    <g
       id="Icon-Architecture-BG/64/Database"
       fill="url(#linearGradient-1)"
       style="fill:url(#linearGradient1252)">
      <rect
         id="Rectangle"
         x="0"
         y="0"
         width="77"
         height="80"
         style="fill:url(#linearGradient1393)" />
    </g>
    <path
       d="m 34.5,13.992833 c 10.313,0 17.5,3.150668 17.5,5.978498 0,2.82783 -7.187,5.978499 -17.5,5.978499 -10.313,0 -17.5,-3.150669 -17.5,-5.978499 0,-2.82783 7.187,-5.978498 17.5,-5.978498 z M 34.295,67.007167 C 24.103,67.007167 17,63.787746 17,60.899135 v -8.686759 c 3.121,2.612604 9.472,4.326441 17.161,4.326441 1.773,0 3.557,-0.09865 5.304,-0.29195 l -0.221,-1.980876 c -1.674,0.185333 -3.385,0.279993 -5.083,0.279993 -9.515,0 -16.331,-2.821851 -17.161,-5.553029 V 38.255572 c 3.121,2.612604 9.472,4.325444 17.161,4.325444 1.81,0 3.596,-0.09964 5.308,-0.296932 L 39.24,40.305201 c -1.637,0.188322 -3.345,0.282982 -5.079,0.282982 -9.515,0 -16.331,-2.820855 -17.161,-5.552032 V 23.554444 c 2.879,2.45816 8.818,4.388218 17.5,4.388218 8.682,0 14.621,-1.930058 17.5,-4.388218 v 3.391802 h 2 V 19.971331 C 54,16.107228 47.166,12 34.5,12 21.834,12 15,16.107228 15,19.971331 V 60.899135 C 15,65.516528 23.295,69 34.295,69 43.13,69 50.592,66.669382 52.863,63.201853 L 51.187,62.11277 c -1.592,2.432252 -7.906,4.894397 -16.892,4.894397 z M 58.207,42.167503 c 0.563,0 1.06,0.224194 1.399,0.632724 0.624,0.747313 0.523,1.879242 0.462,2.279801 0.029,2.106424 1.192,2.517944 1.327,2.558797 0.43,0.129534 0.733,0.533083 0.722,0.98147 -0.011,0.448388 -0.308,0.83699 -0.745,0.9456 -0.113,0.03487 -1.305,0.456358 -1.305,2.630539 0.023,1.172782 -0.54,2.473105 -1.83,2.511966 h -0.768 v -1.992833 h 0.528 c 0.04,-0.132524 0.071,-0.340775 0.07,-0.505183 0,-1.81846 0.61,-2.935443 1.262,-3.610017 -0.652,-0.673577 -1.262,-1.787571 -1.262,-3.599056 0,-0.06078 0.006,-0.122559 0.017,-0.182344 0.038,-0.21423 0.038,-0.495219 0.006,-0.658631 h -0.621 v -1.992833 z m -4.68,0 h 0.769 v 1.992833 h -0.527 c -0.041,0.132523 -0.072,0.340774 -0.071,0.505183 0,1.81846 -0.609,2.935442 -1.261,3.610016 0.652,0.673578 1.261,1.787571 1.261,3.599056 0,0.06178 -0.006,0.12256 -0.016,0.182345 -0.038,0.214229 -0.038,0.495218 -0.006,0.658631 h 0.62 V 54.7084 h -0.738 c -0.563,0 -1.06,-0.224194 -1.4,-0.631728 -0.623,-0.747313 -0.521,-1.879242 -0.461,-2.280798 -0.028,-2.105427 -1.192,-2.517944 -1.327,-2.5578 -0.431,-0.130531 -0.733,-0.53408 -0.723,-0.982467 0.011,-0.447391 0.309,-0.83699 0.746,-0.945599 0.114,-0.03488 1.305,-0.456359 1.305,-2.630539 -0.023,-1.171786 0.539,-2.473106 1.829,-2.511966 z M 64,58.831571 H 47 V 34.917577 h 11 v 3.985666 c 0,0.550022 0.447,0.996416 1,0.996416 h 5 z M 60,34.917577 h 0.245 l 3.023,2.989249 H 60 Z m 5.704,2.590683 -4.343,-4.294555 c -0.186,-0.185333 -0.44,-0.288961 -0.704,-0.288961 H 60 59.635 L 56.548,29.29181 c -0.191,-0.224194 -0.47,-0.352731 -0.764,-0.352731 H 42 c -0.553,0 -1,0.446394 -1,0.996416 v 25.906826 c 0,0.550022 0.447,0.996417 1,0.996417 h 2 V 54.845905 H 43 V 30.931911 h 12.32 l 1.694,1.992833 H 46 c -0.553,0 -1,0.446395 -1,0.996417 v 25.906826 c 0,0.550022 0.447,0.996417 1,0.996417 h 19 c 0.553,0 1,-0.446395 1,-0.996417 V 38.215715 c 0,-0.266043 -0.106,-0.520129 -0.296,-0.707455 z"
       id="Amazon-DocumentDB_Icon_64_Squid"
       fill="#ffffff" />
  </g>
</svg>
